<svg width="31" height="31" viewBox="0 0 31 31" fill="none" xmlns="http://www.w3.org/2000/svg">
<path d="M15.875 0.375C7.59152 0.375 0.875 7.09152 0.875 15.375C0.875 23.6585 7.59152 30.375 15.875 30.375C24.1585 30.375 30.875 23.6585 30.875 15.375C30.875 7.09152 24.1585 0.375 15.875 0.375ZM23.0837 11.6819C23.0937 11.8393 23.0937 12.0033 23.0937 12.1641C23.0937 17.0792 19.3504 22.7411 12.51 22.7411C10.4007 22.7411 8.44531 22.1283 6.79799 21.0737C7.09933 21.1071 7.38728 21.1205 7.69531 21.1205C9.43638 21.1205 11.0368 20.5312 12.3125 19.5335C10.6786 19.5 9.3058 18.4286 8.83705 16.9554C9.4096 17.0391 9.92522 17.0391 10.5145 16.8884C9.67319 16.7175 8.91699 16.2605 8.37438 15.5953C7.83178 14.93 7.53623 14.0973 7.53795 13.2388V13.192C8.03013 13.4699 8.60938 13.6406 9.2154 13.6641C8.70595 13.3245 8.28814 12.8645 7.99903 12.3249C7.70993 11.7852 7.55845 11.1825 7.55804 10.5703C7.55804 9.87723 7.73884 9.24442 8.06362 8.69531C8.99744 9.84488 10.1627 10.7851 11.4837 11.4548C12.8047 12.1245 14.2518 12.5088 15.731 12.5826C15.2054 10.0547 17.0938 8.00893 19.3638 8.00893C20.4353 8.00893 21.3996 8.45759 22.0792 9.1808C22.9196 9.02344 23.7232 8.7087 24.4397 8.28683C24.1618 9.14732 23.5792 9.87388 22.8058 10.3326C23.5558 10.2522 24.279 10.0446 24.9487 9.75335C24.4431 10.4967 23.8103 11.1562 23.0837 11.6819Z" fill="#666666"/>
</svg>
